<svg width="35" height="34" viewBox="0 0 35 34" fill="none" xmlns="http://www.w3.org/2000/svg">
<g id="pets_FILL0_wght400_GRAD0_opsz48 1">
<path id="Vector" d="M6.19274 16.8229C5.27255 16.8229 4.49649 16.5143 3.86454 15.8971C3.2326 15.2799 2.91663 14.5243 2.91663 13.6304C2.91663 12.7365 3.23431 11.9826 3.86968 11.3688C4.50505 10.7549 5.28283 10.4479 6.20302 10.4479C7.1232 10.4479 7.89927 10.7565 8.53121 11.3737C9.16315 11.991 9.47913 12.7465 9.47913 13.6404C9.47913 14.5343 9.16144 15.2882 8.52607 15.9021C7.8907 16.516 7.11292 16.8229 6.19274 16.8229ZM12.9375 10.8021C12.0173 10.8021 11.2413 10.4935 10.6093 9.87626C9.97739 9.25904 9.66142 8.50349 9.66142 7.60959C9.66142 6.7157 9.9791 5.96181 10.6145 5.34792C11.2498 4.73403 12.0276 4.42709 12.9478 4.42709C13.868 4.42709 14.6441 4.73569 15.276 5.35291C15.9079 5.97013 16.2239 6.72569 16.2239 7.61958C16.2239 8.51347 15.9062 9.26736 15.2709 9.88125C14.6355 10.4951 13.8577 10.8021 12.9375 10.8021ZM22.0521 10.8021C21.1319 10.8021 20.3559 10.4935 19.7239 9.87626C19.092 9.25904 18.776 8.50349 18.776 7.60959C18.776 6.7157 19.0937 5.96181 19.7291 5.34792C20.3644 4.73403 21.1422 4.42709 22.0624 4.42709C22.9826 4.42709 23.7586 4.73569 24.3906 5.35291C25.0225 5.97013 25.3385 6.72569 25.3385 7.61958C25.3385 8.51347 25.0208 9.26736 24.3854 9.88125C23.7501 10.4951 22.9723 10.8021 22.0521 10.8021ZM28.7969 16.8229C27.8767 16.8229 27.1007 16.5143 26.4687 15.8971C25.8368 15.2799 25.5208 14.5243 25.5208 13.6304C25.5208 12.7365 25.8385 11.9826 26.4739 11.3688C27.1092 10.7549 27.887 10.4479 28.8072 10.4479C29.7274 10.4479 30.5034 10.7565 31.1354 11.3737C31.7673 11.991 32.0833 12.7465 32.0833 13.6404C32.0833 14.5343 31.7656 15.2882 31.1302 15.9021C30.4949 16.516 29.7171 16.8229 28.7969 16.8229ZM9.69788 31.3438C8.67704 31.3438 7.8385 30.9716 7.18225 30.2272C6.526 29.4828 6.19788 28.6036 6.19788 27.5896C6.19788 26.5979 6.50777 25.7184 7.12756 24.951C7.74736 24.1837 8.40968 23.4458 9.11454 22.7375C9.64927 22.2181 10.1475 21.6691 10.6093 21.0906C11.0711 20.5122 11.5086 19.916 11.9218 19.3021C12.6267 18.2632 13.4166 17.2951 14.2916 16.3979C15.1666 15.5007 16.2361 15.0521 17.5 15.0521C18.7638 15.0521 19.8394 15.5007 20.7265 16.3979C21.6137 17.2951 22.4097 18.275 23.1145 19.3375C23.5277 19.9514 23.9592 20.5417 24.4088 21.1083C24.8585 21.675 25.3507 22.2181 25.8854 22.7375C26.5902 23.4458 27.2526 24.1837 27.8724 24.951C28.4921 25.7184 28.802 26.5979 28.802 27.5896C28.802 28.6036 28.4739 29.4828 27.8177 30.2272C27.1614 30.9716 26.3229 31.3438 25.302 31.3438C23.9895 31.3438 22.6892 31.2375 21.401 31.025C20.1128 30.8125 18.8125 30.7063 17.5 30.7063C16.1875 30.7063 14.8871 30.8125 13.5989 31.025C12.3107 31.2375 11.0104 31.3438 9.69788 31.3438Z" fill="white"/>
</g>
</svg>
